<svg xmlns="http://www.w3.org/2000/svg" width="655" height="506" viewBox="0 0 655 506"><rect width="100%" height="100%" fill="#DDDDDD"/><path fill="#999999" d="m170.73 221.55-18.66 22.84-2.18 2.69q1.83-.91 3.94-1.41t4.54-.5q3.57 0 6.94 1.17 3.37 1.18 5.94 3.55t4.13 5.89q1.57 3.53 1.57 8.22 0 4.4-1.61 8.25t-4.53 6.72q-2.91 2.87-7.02 4.52-4.11 1.66-9.07 1.66-5.05 0-9.05-1.61t-6.83-4.51q-2.83-2.89-4.33-6.96-1.5-4.06-1.5-9.02 0-4.44 1.81-9.12 1.8-4.67 5.59-9.72l15.01-20.14q.78-1.04 2.28-1.78t3.46-.74zm-16.23 54.81q2.57 0 4.72-.87t3.7-2.44q1.54-1.56 2.41-3.67t.87-4.59q0-2.7-.82-4.85-.83-2.16-2.35-3.66t-3.66-2.28q-2.13-.78-4.69-.78-2.57 0-4.66.87t-3.57 2.41q-1.47 1.55-2.3 3.66-.83 2.1-.83 4.54 0 2.61.72 4.76.72 2.16 2.13 3.68 1.42 1.52 3.5 2.37 2.09.85 4.83.85m45.2-45.07-2.22 13.1q2.09-.44 4-.63 1.92-.2 3.7-.2 4.96 0 8.74 1.48 3.79 1.48 6.35 4.09 2.57 2.61 3.88 6.11 1.3 3.5 1.3 7.55 0 5-1.76 9.13t-4.9 7.07q-3.13 2.94-7.41 4.55-4.29 1.61-9.33 1.61-2.96 0-5.61-.61-2.66-.61-4.98-1.63-2.33-1.03-4.31-2.35-1.98-1.33-3.55-2.81l3.31-4.57q1.04-1.48 2.74-1.48 1.09 0 2.22.7t2.59 1.52q1.45.83 3.43 1.53 1.98.69 4.77.69 2.95 0 5.22-.96 2.26-.95 3.76-2.67t2.26-4.09.76-5.15q0-5.14-2.98-8.03t-8.81-2.89q-4.48 0-9.17 1.65l-6.7-1.91 5.22-30.54h31.06v4.57q0 2.3-1.44 3.74-1.44 1.43-4.87 1.43zm50.46 0-2.22 13.1q2.09-.44 4-.63 1.92-.2 3.7-.2 4.96 0 8.74 1.48 3.79 1.48 6.35 4.09 2.57 2.61 3.88 6.11 1.3 3.5 1.3 7.55 0 5-1.76 9.13t-4.9 7.07q-3.13 2.94-7.41 4.55-4.29 1.61-9.33 1.61-2.96 0-5.61-.61-2.66-.61-4.98-1.63-2.33-1.03-4.31-2.35-1.98-1.33-3.55-2.81l3.31-4.57q1.04-1.48 2.74-1.48 1.09 0 2.22.7t2.59 1.52q1.45.83 3.43 1.53 1.98.69 4.77.69 2.95 0 5.22-.96 2.26-.95 3.76-2.67t2.26-4.09.76-5.15q0-5.14-2.98-8.03t-8.81-2.89q-4.48 0-9.17 1.65l-6.7-1.91 5.22-30.54h31.06v4.57q0 2.3-1.44 3.74-1.44 1.43-4.87 1.43zm97.48 38.76-5.7 5.61-14.74-14.74-14.88 14.83-5.7-5.61 14.88-14.92-14.18-14.18 5.65-5.66 14.18 14.18 14.1-14.09 5.74 5.65-14.14 14.14zm45.72-38.76-2.22 13.1q2.09-.44 4-.63 1.92-.2 3.7-.2 4.96 0 8.75 1.48 3.78 1.48 6.35 4.09 2.56 2.61 3.87 6.11 1.3 3.5 1.3 7.55 0 5-1.76 9.13t-4.89 7.07-7.42 4.55q-4.28 1.61-9.33 1.61-2.96 0-5.61-.61-2.66-.61-4.98-1.63-2.33-1.03-4.31-2.35-1.98-1.33-3.54-2.81l3.3-4.57q1.05-1.48 2.74-1.48 1.09 0 2.22.7t2.59 1.52q1.46.83 3.44 1.53 1.97.69 4.76.69 2.96 0 5.22-.96 2.26-.95 3.76-2.67t2.26-4.09.76-5.15q0-5.14-2.98-8.03-2.97-2.89-8.8-2.89-4.48 0-9.18 1.65l-6.7-1.91 5.22-30.54h31.06v4.57q0 2.3-1.44 3.74-1.43 1.43-4.87 1.43zM472.23 253q0 8.22-1.77 14.29-1.76 6.07-4.87 10.03-3.11 3.95-7.35 5.89t-9.16 1.94q-4.91 0-9.11-1.94t-7.29-5.89q-3.08-3.96-4.82-10.03T426.12 253q0-8.27 1.74-14.31 1.74-6.05 4.82-10.01 3.09-3.96 7.29-5.89 4.2-1.94 9.11-1.94 4.92 0 9.16 1.94 4.24 1.93 7.35 5.89t4.87 10.01q1.77 6.04 1.77 14.31m-11.1 0q0-6.83-1-11.31t-2.67-7.13q-1.68-2.66-3.85-3.72-2.18-1.07-4.53-1.07-2.3 0-4.45 1.07-2.16 1.06-3.81 3.72-1.65 2.65-2.63 7.13t-.98 11.31.98 11.31 2.63 7.13q1.65 2.66 3.81 3.72 2.15 1.07 4.45 1.07 2.35 0 4.53-1.07 2.17-1.06 3.85-3.72 1.67-2.65 2.67-7.13t1-11.31m54.64-31.45-18.66 22.84-2.18 2.69q1.83-.91 3.94-1.41t4.55-.5q3.56 0 6.93 1.17 3.38 1.18 5.94 3.55 2.57 2.37 4.13 5.89 1.57 3.53 1.57 8.22 0 4.4-1.61 8.25t-4.52 6.72q-2.92 2.87-7.03 4.52-4.11 1.66-9.07 1.66-5.04 0-9.05-1.61-4-1.61-6.83-4.51-2.82-2.89-4.32-6.96-1.5-4.06-1.5-9.02 0-4.44 1.8-9.12 1.81-4.67 5.59-9.72l15.01-20.14q.78-1.04 2.28-1.78t3.46-.74zm-16.23 54.81q2.57 0 4.72-.87 2.16-.87 3.7-2.44 1.55-1.56 2.42-3.67t.87-4.59q0-2.7-.83-4.85-.83-2.16-2.35-3.66t-3.65-2.28q-2.14-.78-4.7-.78-2.57 0-4.66.87-2.08.87-3.56 2.41-1.48 1.55-2.31 3.66-.83 2.1-.83 4.54 0 2.61.72 4.76.72 2.16 2.13 3.68 1.42 1.52 3.51 2.37 2.08.85 4.82.85"/></svg>