<svg xmlns="http://www.w3.org/2000/svg" width="363" height="516" viewBox="0 0 363 516"><rect width="100%" height="100%" fill="#DDDDDD"/><path fill="#999999" d="m78.11 250.875-3.12-.55q.36-2.5 1.39-4.38 1.03-1.89 2.58-3.15t3.55-1.89q2.01-.64 4.31-.64 2.4 0 4.33.69 1.93.68 3.3 1.89t2.1 2.85q.73 1.63.73 3.52 0 1.66-.37 2.92t-1.07 2.2q-.69.93-1.72 1.58-1.04.65-2.33 1.08 3.12.98 4.65 3 1.54 2.02 1.54 5.06 0 2.6-.96 4.59t-2.59 3.35q-1.63 1.35-3.78 2.05-2.15.69-4.55.69-2.62 0-4.56-.6t-3.38-1.77q-1.44-1.18-2.45-2.88-1.01-1.71-1.73-3.94l2.62-1.08q1.03-.43 1.93-.23.9.21 1.31.98.43.84.94 1.65.52.82 1.24 1.45.72.64 1.69 1.04.97.39 2.32.39 1.51 0 2.64-.49t1.88-1.28q.76-.8 1.13-1.77t.37-1.95q0-1.25-.26-2.27-.27-1.02-1.11-1.74t-2.41-1.13-4.21-.41v-4.22q2.18-.03 3.62-.41t2.3-1.07q.85-.68 1.18-1.64.34-.96.34-2.11 0-2.45-1.37-3.72-1.37-1.28-3.65-1.28-1.05 0-1.94.3t-1.6.84q-.7.54-1.18 1.26t-.72 1.59q-.41 1.1-1.07 1.46t-1.86.17m44.95-10.22-10.3 12.6-1.2 1.48q1.01-.5 2.18-.78 1.16-.27 2.5-.27 1.97 0 3.83.65 1.86.64 3.28 1.95 1.41 1.31 2.28 3.25.86 1.95.86 4.54 0 2.42-.89 4.55-.88 2.12-2.49 3.71-1.61 1.58-3.88 2.49t-5 .91q-2.79 0-4.99-.88-2.21-.89-3.77-2.49-1.56-1.59-2.39-3.84-.83-2.24-.83-4.98 0-2.45 1-5.03.99-2.58 3.08-5.36l8.28-11.11q.43-.58 1.26-.99.83-.4 1.91-.4zm-8.95 30.24q1.41 0 2.6-.48t2.04-1.35q.85-.86 1.33-2.03.48-1.16.48-2.53 0-1.49-.45-2.67-.46-1.19-1.3-2.02t-2.01-1.26q-1.18-.43-2.6-.43-1.41 0-2.56.48-1.16.48-1.97 1.33-.82.85-1.27 2.02-.46 1.16-.46 2.5 0 1.44.4 2.63.39 1.19 1.17 2.03t1.93 1.31q1.16.47 2.67.47m19.68-20.02-3.12-.55q.36-2.5 1.39-4.38 1.03-1.89 2.58-3.15t3.55-1.89q2.01-.64 4.31-.64 2.4 0 4.33.69 1.93.68 3.3 1.89t2.1 2.85q.73 1.63.73 3.52 0 1.66-.37 2.92t-1.07 2.2q-.69.93-1.72 1.58-1.04.65-2.33 1.08 3.12.98 4.65 3 1.54 2.02 1.54 5.06 0 2.6-.96 4.59t-2.59 3.35q-1.63 1.35-3.78 2.05-2.15.69-4.55.69-2.62 0-4.56-.6t-3.38-1.77q-1.44-1.18-2.45-2.88-1.01-1.71-1.73-3.94l2.62-1.08q1.03-.43 1.93-.23.9.21 1.31.98.43.84.94 1.65.52.82 1.24 1.45.72.64 1.69 1.04.97.39 2.32.39 1.51 0 2.64-.49t1.88-1.28q.76-.8 1.13-1.77t.37-1.95q0-1.25-.26-2.27-.27-1.02-1.11-1.74t-2.41-1.13-4.21-.41v-4.22q2.18-.03 3.62-.41t2.3-1.07q.85-.68 1.18-1.64.34-.96.34-2.11 0-2.45-1.37-3.72-1.37-1.28-3.65-1.28-1.05 0-1.94.3t-1.6.84q-.7.54-1.18 1.26t-.72 1.59q-.41 1.1-1.07 1.46t-1.86.17m59.04 16.54-3.15 3.09-8.13-8.13-8.21 8.18-3.14-3.1 8.2-8.23-7.82-7.82 3.12-3.12 7.82 7.82 7.78-7.77 3.17 3.12-7.8 7.8zm25.22-21.39-1.22 7.23q1.15-.24 2.21-.35 1.05-.11 2.04-.11 2.73 0 4.82.82 2.09.81 3.5 2.25 1.42 1.44 2.14 3.37.72 1.94.72 4.17 0 2.76-.97 5.04t-2.7 3.9-4.09 2.51q-2.37.88-5.15.88-1.63 0-3.1-.33-1.46-.34-2.75-.9-1.28-.57-2.37-1.3t-1.96-1.55l1.83-2.52q.57-.81 1.51-.81.6 0 1.22.38.63.39 1.43.84.8.46 1.9.84 1.09.39 2.62.39 1.64 0 2.88-.53 1.25-.53 2.08-1.48t1.25-2.25q.42-1.31.42-2.85 0-2.83-1.65-4.43-1.64-1.59-4.86-1.59-2.47 0-5.06.91l-3.7-1.06 2.88-16.84h17.14v2.52q0 1.27-.79 2.06t-2.69.79zm35.47 24.89h6.24v4.44h-19.2v-4.44h7.04v-20.23q0-1.2.07-2.47l-4.99 4.17q-.44.34-.86.42-.42.09-.79.01-.37-.07-.66-.25t-.43-.39l-1.87-2.57 10.58-9h4.87zm32.07-30.26-10.3 12.6-1.2 1.48q1.01-.5 2.17-.78 1.17-.27 2.51-.27 1.97 0 3.83.65 1.86.64 3.28 1.95 1.41 1.31 2.28 3.25.86 1.95.86 4.54 0 2.42-.89 4.55-.89 2.12-2.49 3.71-1.61 1.58-3.88 2.49t-5 .91q-2.79 0-5-.88-2.2-.89-3.76-2.49-1.56-1.59-2.39-3.84-.83-2.24-.83-4.98 0-2.45 1-5.03.99-2.58 3.08-5.36l8.28-11.11q.43-.58 1.26-.99.83-.4 1.91-.4zm-8.95 30.24q1.41 0 2.6-.48t2.04-1.35q.85-.86 1.33-2.03.48-1.16.48-2.53 0-1.49-.45-2.67-.46-1.19-1.3-2.02t-2.02-1.26q-1.17-.43-2.59-.43-1.41 0-2.57.48-1.15.48-1.96 1.33-.82.85-1.28 2.02-.45 1.16-.45 2.5 0 1.44.39 2.63.4 1.19 1.18 2.03t1.93 1.31 2.67.47"/></svg>