<svg xmlns="http://www.w3.org/2000/svg" width="1024" height="853" viewBox="0 0 1024 853"><rect width="100%" height="100%" fill="#DDDDDD"/><path fill="#999999" d="M249.83 458.78h15.6v11.1h-48v-11.1h17.58V408.2q0-3 .18-6.18l-12.48 10.44q-1.08.84-2.13 1.05t-1.98.03-1.65-.63-1.08-.99l-4.68-6.42 26.46-22.5h12.18zm89.7-32.28q0 11.34-2.43 19.71t-6.72 13.83-10.14 8.13-12.63 2.67-12.57-2.67-10.05-8.13-6.66-13.83-2.4-19.71q0-11.4 2.4-19.74t6.66-13.8 10.05-8.13 12.57-2.67 12.63 2.67 10.14 8.13 6.72 13.8 2.43 19.74m-15.3 0q0-9.42-1.38-15.6t-3.69-9.84-5.31-5.13-6.24-1.47q-3.18 0-6.15 1.47t-5.25 5.13-3.63 9.84-1.35 15.6 1.35 15.6 3.63 9.84 5.25 5.13 6.15 1.47q3.24 0 6.24-1.47t5.31-5.13 3.69-9.84 1.38-15.6m54.9 29.58h22.26q2.4 0 3.81 1.35t1.41 3.57v8.88h-59.52v-4.92q0-1.5.63-3.15t2.01-2.97l26.34-26.4q3.3-3.36 5.91-6.42t4.35-6.06 2.67-6.09.93-6.51q0-3.12-.9-5.49t-2.55-3.99-3.96-2.43-5.19-.81q-2.64 0-4.89.75t-3.99 2.1-2.94 3.15-1.8 3.96q-1.02 2.76-2.64 3.66t-4.68.42l-7.8-1.38q.9-6.24 3.48-10.95t6.45-7.86 8.88-4.74 10.77-1.59q6 0 10.98 1.77t8.52 5.01 5.52 7.8 1.98 10.14q0 4.8-1.41 8.88t-3.78 7.8-5.55 7.2-6.66 7.08l-19.56 19.98q2.82-.84 5.61-1.29t5.31-.45m49.32-18.9h26.4V408.8q0-4.02.54-8.88zm39.3 0h10.92v8.58q0 1.2-.78 2.07t-2.22.87h-7.92v21.18h-12.9V448.7h-36.6q-1.5 0-2.64-.93t-1.44-2.31l-1.56-7.5 41.1-54.9h14.04zm106.26 12.84-7.86 7.74-20.34-20.34-20.52 20.46-7.86-7.74 20.52-20.58L518.39 410l7.8-7.8 19.56 19.56 19.44-19.44 7.92 7.8-19.5 19.5zm70.44 9.24q3.66 0 6.42-1.05t4.65-2.91 2.85-4.44.96-5.58q0-7.14-3.96-10.8t-10.92-3.66-10.92 3.66-3.96 10.8q0 3 .96 5.58t2.85 4.44 4.65 2.91 6.42 1.05m0-65.94q-3.3 0-5.7 1.02t-3.99 2.73-2.34 3.93-.75 4.68q0 2.58.63 5.01t2.13 4.32 3.96 3.03 6.06 1.14 6.06-1.14 3.96-3.03 2.13-4.32.63-5.01q0-2.46-.78-4.68t-2.34-3.93-3.96-2.73-5.7-1.02m14.64 31.32q7.92 2.58 11.7 7.89t3.78 12.99q0 5.76-2.19 10.44t-6.15 7.98-9.51 5.1-12.27 1.8-12.27-1.8-9.51-5.1-6.15-7.98-2.19-10.44q0-7.68 3.78-12.99t11.7-7.89q-6.3-2.64-9.45-7.5t-3.15-11.7q0-4.92 2.01-9.18t5.61-7.41 8.61-4.92 11.01-1.77 11.01 1.77 8.61 4.92 5.61 7.41 2.01 9.18q0 6.84-3.15 11.7t-9.45 7.5m47.58-28.08-3.06 18.06q2.88-.6 5.52-.87t5.1-.27q6.84 0 12.06 2.04t8.76 5.64 5.34 8.43 1.8 10.41q0 6.9-2.43 12.6t-6.75 9.75-10.23 6.27-12.87 2.22q-4.08 0-7.74-.84t-6.87-2.25-5.94-3.24-4.89-3.87l4.56-6.3q1.44-2.04 3.78-2.04 1.5 0 3.06.96t3.57 2.1 4.74 2.1 6.57.96q4.08 0 7.2-1.32t5.19-3.69 3.12-5.64 1.05-7.11q0-7.08-4.11-11.07t-12.15-3.99q-6.18 0-12.66 2.28l-9.24-2.64 7.2-42.12h42.84v6.3q0 3.18-1.98 5.16t-6.72 1.98zm56.46 12.12-7.8-1.38q.9-6.24 3.48-10.95t6.45-7.86 8.88-4.74 10.77-1.59q6 0 10.83 1.71t8.25 4.74 5.25 7.11 1.83 8.82q0 4.14-.93 7.29t-2.67 5.49-4.32 3.96-5.82 2.7q7.8 2.46 11.64 7.5t3.84 12.66q0 6.48-2.4 11.46t-6.48 8.37-9.45 5.13-11.37 1.74q-6.54 0-11.4-1.5t-8.46-4.44-6.12-7.2-4.32-9.84l6.54-2.7q2.58-1.08 4.83-.57t3.27 2.43q1.08 2.1 2.37 4.14t3.09 3.63 4.23 2.58 5.79.99q3.78 0 6.6-1.23t4.71-3.21 2.82-4.41.93-4.89q0-3.12-.66-5.67t-2.76-4.35-6.03-2.82-10.53-1.02V420.2q5.46-.06 9.06-1.02t5.73-2.67 2.97-4.11.84-5.28q0-6.12-3.42-9.3t-9.12-3.18q-2.64 0-4.86.75t-3.99 2.1-2.97 3.15-1.8 3.96q-1.02 2.76-2.67 3.66t-4.65.42"/></svg>